<?xml version="1.0" standalone="no"?>
<!DOCTYPE svg PUBLIC "-//W3C//DTD SVG 20010904//EN"
 "http://www.w3.org/TR/2001/REC-SVG-20010904/DTD/svg10.dtd">
<svg version="1.0" xmlns="http://www.w3.org/2000/svg"
 width="240.000000pt" height="240.000000pt" viewBox="0 0 240.000000 240.000000"
 preserveAspectRatio="xMidYMid meet">
<metadata>
Created by potrace 1.14, written by Peter Selinger 2001-2017
</metadata>
<g transform="translate(0.000000,240.000000) scale(0.100000,-0.100000)"
fill="#000000" stroke="none">
<path d="M1353 2343 c-13 -27 -63 -138 -113 -247 -50 -110 -92 -201 -94 -203
-1 -2 -29 55 -61 127 -31 71 -60 130 -64 130 -3 0 -44 -84 -90 -187 -47 -104
-102 -226 -124 -273 -21 -47 -48 -105 -59 -130 -29 -64 -61 -135 -96 -210 -42
-93 -126 -277 -150 -330 -28 -64 -51 -115 -169 -375 -58 -126 -117 -257 -132
-289 -14 -33 -56 -125 -92 -205 l-66 -146 975 -3 c536 -1 977 -1 979 1 3 4
-57 142 -82 189 -8 14 -15 31 -15 36 0 6 81 10 225 10 124 -1 227 1 229 3 2 2
-29 76 -70 164 -40 88 -85 188 -100 222 l-28 63 -518 0 c-343 0 -518 3 -518
10 0 6 4 18 10 28 10 17 42 87 123 267 25 55 59 129 75 165 17 36 50 110 75
165 24 55 57 127 72 160 15 33 34 76 43 95 50 113 111 242 115 246 4 5 -26 74
-147 339 -18 39 -48 105 -67 147 -18 43 -36 78 -39 78 -3 0 -15 -21 -27 -47z
m-159 -561 c15 -35 40 -90 56 -123 l28 -59 -24 -50 c-13 -27 -24 -52 -24 -54
0 -3 -16 -40 -36 -83 -120 -258 -434 -952 -434 -958 0 -3 234 -6 520 -7 l521
-3 44 -99 c25 -55 45 -102 45 -105 0 -6 -1479 -5 -1485 1 -3 3 200 459 300
674 8 16 27 59 43 95 16 35 41 89 55 119 14 30 58 127 97 215 70 155 82 181
140 310 15 33 40 87 54 120 50 110 48 107 61 87 7 -9 25 -46 39 -80z"/>
</g>
</svg>
